G04 #@! TF.GenerationSoftware,KiCad,Pcbnew,(5.1.6)-1*
G04 #@! TF.CreationDate,2020-06-11T13:24:41-03:00*
G04 #@! TF.ProjectId,Jupiter-II_expansion,4a757069-7465-4722-9d49-495f65787061,rev?*
G04 #@! TF.SameCoordinates,Original*
G04 #@! TF.FileFunction,Legend,Bot*
G04 #@! TF.FilePolarity,Positive*
%FSLAX46Y46*%
G04 Gerber Fmt 4.6, Leading zero omitted, Abs format (unit mm)*
G04 Created by KiCad (PCBNEW (5.1.6)-1) date 2020-06-11 13:24:41*
%MOMM*%
%LPD*%
G01*
G04 APERTURE LIST*
G04 #@! TA.AperFunction,Profile*
%ADD10C,0.050000*%
G04 #@! TD*
%ADD11C,0.120000*%
%ADD12C,0.150000*%
G04 APERTURE END LIST*
D10*
X219075000Y-62865000D02*
G75*
G02*
X223520000Y-67310000I0J-4445000D01*
G01*
X59055000Y-67310000D02*
G75*
G02*
X63500000Y-62865000I4445000J0D01*
G01*
X219075000Y-62865000D02*
X63500000Y-62865000D01*
X223520000Y-130175000D02*
G75*
G02*
X219075000Y-134620000I-4445000J0D01*
G01*
X63500000Y-134620000D02*
G75*
G02*
X59055000Y-130175000I0J4445000D01*
G01*
X223520000Y-130175000D02*
X223520000Y-67310000D01*
X63500000Y-134620000D02*
X219075000Y-134620000D01*
X59055000Y-130175000D02*
X59055000Y-67310000D01*
D11*
X135950000Y-126940000D02*
X135950000Y-132140000D01*
X74930000Y-126940000D02*
X135950000Y-126940000D01*
X72330000Y-132140000D02*
X135950000Y-132140000D01*
X74930000Y-126940000D02*
X74930000Y-129540000D01*
X74930000Y-129540000D02*
X72330000Y-129540000D01*
X72330000Y-129540000D02*
X72330000Y-132140000D01*
X73660000Y-126940000D02*
X72330000Y-126940000D01*
X72330000Y-126940000D02*
X72330000Y-128270000D01*
X209610000Y-126940000D02*
X209610000Y-132140000D01*
X173990000Y-126940000D02*
X209610000Y-126940000D01*
X171390000Y-132140000D02*
X209610000Y-132140000D01*
X173990000Y-126940000D02*
X173990000Y-129540000D01*
X173990000Y-129540000D02*
X171390000Y-129540000D01*
X171390000Y-129540000D02*
X171390000Y-132140000D01*
X172720000Y-126940000D02*
X171390000Y-126940000D01*
X171390000Y-126940000D02*
X171390000Y-128270000D01*
D12*
X71663333Y-128992380D02*
X71663333Y-129706666D01*
X71710952Y-129849523D01*
X71806190Y-129944761D01*
X71949047Y-129992380D01*
X72044285Y-129992380D01*
X70663333Y-129992380D02*
X71234761Y-129992380D01*
X70949047Y-129992380D02*
X70949047Y-128992380D01*
X71044285Y-129135238D01*
X71139523Y-129230476D01*
X71234761Y-129278095D01*
X170723333Y-128992380D02*
X170723333Y-129706666D01*
X170770952Y-129849523D01*
X170866190Y-129944761D01*
X171009047Y-129992380D01*
X171104285Y-129992380D01*
X170342380Y-128992380D02*
X169675714Y-128992380D01*
X170104285Y-129992380D01*
M02*
