M48
; DRILL file {KiCad (5.1.6)-1} date 06/11/20 13:24:44
; FORMAT={-:-/ absolute / inch / decimal}
; #@! TF.CreationDate,2020-06-11T13:24:44-03:00
; #@! TF.GenerationSoftware,Kicad,Pcbnew,(5.1.6)-1
FMAT,2
INCH
T1C0.0130
T2C0.0315
T3C0.0394
T4C0.0469
T5C0.1260
%
G90
G05
T1
X3.45Y-4.15
X3.6Y-4.675
X3.725Y-4.075
X3.775Y-4.125
X3.8Y-4.675
X3.85Y-3.225
X3.95Y-4.375
X4.05Y-4.325
X4.2Y-4.275
X4.25Y-4.525
X4.4Y-4.225
X4.5Y-4.1
X4.55Y-4.475
X4.55Y-4.525
X4.6Y-3.575
X4.65Y-4.675
X4.75Y-3.575
X4.85Y-3.65
X4.9Y-2.925
X4.95Y-3.625
X5.05Y-3.275
X5.05Y-3.525
X5.1Y-4.275
X5.15Y-3.325
X5.15Y-4.375
X5.2Y-3.475
X5.25Y-3.375
X5.25Y-4.325
X5.3Y-3.475
X5.5Y-3.5
X5.5Y-3.6
X5.5Y-3.7
X5.5Y-3.8
X6.22Y-4.6
X6.625Y-4.55
X6.65Y-4.95
X6.675Y-3.3
X6.675Y-4.475
X6.7Y-4.8
X6.725Y-4.425
X6.75Y-4.675
X6.775Y-4.375
X6.9Y-4.9
X6.925Y-4.625
X7.175Y-3.85
X7.45Y-4.275
X7.65Y-2.875
X7.7Y-3.45
X7.925Y-3.4
X7.925Y-3.75
X8.225Y-3.125
X8.225Y-4.8
X8.325Y-4.85
X8.4Y-3.4
T2
X7.5Y-3.3
X7.5Y-3.4
X7.5Y-3.5
X7.5Y-3.6
X7.5Y-3.7
X7.5Y-3.8
X7.5Y-3.9
X7.5Y-4.0
X7.8Y-3.3
X7.8Y-3.4
X7.8Y-3.5
X7.8Y-3.6
X7.8Y-3.7
X7.8Y-3.8
X7.8Y-3.9
X7.8Y-4.0
X2.825Y-3.55
X2.825Y-3.7469
X2.625Y-4.2
X2.625Y-4.3929
X3.8Y-4.0
X3.8Y-4.6
X3.9Y-4.0
X3.9Y-4.6
X4.0Y-4.0
X4.0Y-4.6
X4.1Y-4.0
X4.1Y-4.6
X4.2Y-4.0
X4.2Y-4.6
X4.3Y-4.0
X4.3Y-4.6
X4.4Y-4.0
X4.4Y-4.6
X4.5Y-4.0
X4.5Y-4.6
X4.6Y-4.0
X4.6Y-4.6
X4.7Y-4.0
X4.7Y-4.6
X4.8Y-4.0
X4.8Y-4.6
X4.9Y-4.0
X4.9Y-4.6
X5.0Y-4.0
X5.0Y-4.6
X5.1Y-4.0
X5.1Y-4.6
X5.2Y-4.0
X5.2Y-4.6
X5.3Y-4.0
X5.3Y-4.6
X8.325Y-4.325
X8.325Y-4.625
X8.475Y-4.325
X8.475Y-4.625
X6.85Y-4.0031
X6.85Y-4.2
X7.2031Y-2.825
X7.4Y-2.825
X8.0Y-3.3
X8.0Y-3.4
X8.0Y-3.5
X8.0Y-3.6
X8.0Y-3.7
X8.0Y-3.8
X8.0Y-3.9
X8.0Y-4.0
X8.3Y-3.3
X8.3Y-3.4
X8.3Y-3.5
X8.3Y-3.6
X8.3Y-3.7
X8.3Y-3.8
X8.3Y-3.9
X8.3Y-4.0
X3.0Y-2.7
X3.0Y-2.8
X3.0Y-2.9
X3.0Y-3.0
X3.0Y-3.1
X3.0Y-3.2
X3.0Y-3.3
X3.0Y-3.4
X3.0Y-3.5
X3.0Y-3.6
X3.0Y-3.7
X3.0Y-3.8
X3.0Y-3.9
X3.0Y-4.0
X3.0Y-4.1
X3.0Y-4.2
X3.0Y-4.3
X3.0Y-4.4
X3.0Y-4.5
X3.0Y-4.6
X3.6Y-2.7
X3.6Y-2.8
X3.6Y-2.9
X3.6Y-3.0
X3.6Y-3.1
X3.6Y-3.2
X3.6Y-3.3
X3.6Y-3.4
X3.6Y-3.5
X3.6Y-3.6
X3.6Y-3.7
X3.6Y-3.8
X3.6Y-3.9
X3.6Y-4.0
X3.6Y-4.1
X3.6Y-4.2
X3.6Y-4.3
X3.6Y-4.4
X3.6Y-4.5
X3.6Y-4.6
X5.775Y-3.0
X5.775Y-3.1
X5.775Y-3.2
X5.775Y-3.3
X5.775Y-3.4
X5.775Y-3.5
X5.775Y-3.6
X5.775Y-3.7
X5.775Y-3.8
X5.775Y-3.9
X5.775Y-4.0
X5.775Y-4.1
X5.775Y-4.2
X5.775Y-4.3
X5.775Y-4.4
X5.775Y-4.5
X5.775Y-4.6
X5.775Y-4.7
X5.775Y-4.8
X5.775Y-4.9
X6.375Y-3.0
X6.375Y-3.1
X6.375Y-3.2
X6.375Y-3.3
X6.375Y-3.4
X6.375Y-3.5
X6.375Y-3.6
X6.375Y-3.7
X6.375Y-3.8
X6.375Y-3.9
X6.375Y-4.0
X6.375Y-4.1
X6.375Y-4.2
X6.375Y-4.3
X6.375Y-4.4
X6.375Y-4.5
X6.375Y-4.6
X6.375Y-4.7
X6.375Y-4.8
X6.375Y-4.9
X5.475Y-4.0031
X5.475Y-4.2
X8.3Y-4.2
X8.4969Y-4.2
X7.0Y-3.1
X7.0Y-3.2
X7.0Y-3.3
X7.0Y-3.4
X7.0Y-3.5
X7.0Y-3.6
X7.0Y-3.7
X7.0Y-3.8
X7.0Y-3.9
X7.0Y-4.0
X7.3Y-3.1
X7.3Y-3.2
X7.3Y-3.3
X7.3Y-3.4
X7.3Y-3.5
X7.3Y-3.6
X7.3Y-3.7
X7.3Y-3.8
X7.3Y-3.9
X7.3Y-4.0
X4.0Y-3.2
X4.0Y-3.8
X4.1Y-3.2
X4.1Y-3.8
X4.2Y-3.2
X4.2Y-3.8
X4.3Y-3.2
X4.3Y-3.8
X4.4Y-3.2
X4.4Y-3.8
X4.5Y-3.2
X4.5Y-3.8
X4.6Y-3.2
X4.6Y-3.8
X4.7Y-3.2
X4.7Y-3.8
X4.8Y-3.2
X4.8Y-3.8
X4.9Y-3.2
X4.9Y-3.8
X5.0Y-3.2
X5.0Y-3.8
X5.1Y-3.2
X5.1Y-3.8
X5.2Y-3.2
X5.2Y-3.8
X5.3Y-3.2
X5.3Y-3.8
X3.8Y-2.7
X3.8Y-3.0
X3.9Y-2.7
X3.9Y-3.0
X4.0Y-2.7
X4.0Y-3.0
X4.1Y-2.7
X4.1Y-3.0
X4.2Y-2.7
X4.2Y-3.0
X4.3Y-2.7
X4.3Y-3.0
X4.4Y-2.7
X4.4Y-3.0
X4.5Y-2.7
X4.5Y-3.0
X4.6Y-2.7
X4.6Y-3.0
X4.7Y-2.7
X4.7Y-3.0
X4.8Y-2.7
X4.8Y-3.0
X4.9Y-2.7
X4.9Y-3.0
X8.475Y-3.1031
X8.475Y-3.3
X5.9781Y-2.825
X6.175Y-2.825
X7.0Y-4.2
X7.0Y-4.8
X7.1Y-4.2
X7.1Y-4.8
X7.2Y-4.2
X7.2Y-4.8
X7.3Y-4.2
X7.3Y-4.8
X7.4Y-4.2
X7.4Y-4.8
X7.5Y-4.2
X7.5Y-4.8
X7.6Y-4.2
X7.6Y-4.8
X7.7Y-4.2
X7.7Y-4.8
X7.8Y-4.2
X7.8Y-4.8
X7.9Y-4.2
X7.9Y-4.8
X8.0Y-4.2
X8.0Y-4.8
X8.1Y-4.2
X8.1Y-4.8
X5.1Y-2.825
X5.2969Y-2.825
X2.5Y-4.0
X2.5Y-4.6
X2.8Y-4.0
X2.8Y-4.6
T3
X6.8Y-5.05
X6.8Y-5.15
X6.9Y-5.05
X6.9Y-5.15
X7.0Y-5.05
X7.0Y-5.15
X7.1Y-5.05
X7.1Y-5.15
X7.2Y-5.05
X7.2Y-5.15
X7.3Y-5.05
X7.3Y-5.15
X7.4Y-5.05
X7.4Y-5.15
X7.5Y-5.05
X7.5Y-5.15
X7.6Y-5.05
X7.6Y-5.15
X7.7Y-5.05
X7.7Y-5.15
X7.8Y-5.05
X7.8Y-5.15
X7.9Y-5.05
X7.9Y-5.15
X8.0Y-5.05
X8.0Y-5.15
X8.1Y-5.05
X8.1Y-5.15
X8.2Y-5.05
X8.2Y-5.15
X2.9Y-4.8
X2.9Y-4.9
X3.0Y-4.8
X3.0Y-4.9
X3.1Y-4.8
X3.1Y-4.9
X3.2Y-4.8
X3.2Y-4.9
X3.3Y-4.8
X3.3Y-4.9
X3.4Y-4.8
X3.4Y-4.9
X3.5Y-4.8
X3.5Y-4.9
X3.6Y-4.8
X3.6Y-4.9
X3.7Y-4.8
X3.7Y-4.9
X3.8Y-4.8
X3.8Y-4.9
X3.9Y-4.8
X3.9Y-4.9
X4.0Y-4.8
X4.0Y-4.9
X4.1Y-4.8
X4.1Y-4.9
X4.2Y-4.8
X4.2Y-4.9
X4.3Y-4.8
X4.3Y-4.9
X4.4Y-4.8
X4.4Y-4.9
X4.5Y-4.8
X4.5Y-4.9
X4.6Y-4.8
X4.6Y-4.9
X4.7Y-4.8
X4.7Y-4.9
X4.8Y-4.8
X4.8Y-4.9
X4.9Y-4.8
X4.9Y-4.9
X5.0Y-4.8
X5.0Y-4.9
X5.1Y-4.8
X5.1Y-4.9
X5.2Y-4.8
X5.2Y-4.9
X5.3Y-4.8
X5.3Y-4.9
X2.9Y-5.05
X2.9Y-5.15
X3.0Y-5.05
X3.0Y-5.15
X3.1Y-5.05
X3.1Y-5.15
X3.2Y-5.05
X3.2Y-5.15
X3.3Y-5.05
X3.3Y-5.15
X3.4Y-5.05
X3.4Y-5.15
X3.5Y-5.05
X3.5Y-5.15
X3.6Y-5.05
X3.6Y-5.15
X3.7Y-5.05
X3.7Y-5.15
X3.8Y-5.05
X3.8Y-5.15
X3.9Y-5.05
X3.9Y-5.15
X4.0Y-5.05
X4.0Y-5.15
X4.1Y-5.05
X4.1Y-5.15
X4.2Y-5.05
X4.2Y-5.15
X4.3Y-5.05
X4.3Y-5.15
X4.4Y-5.05
X4.4Y-5.15
X4.5Y-5.05
X4.5Y-5.15
X4.6Y-5.05
X4.6Y-5.15
X4.7Y-5.05
X4.7Y-5.15
X4.8Y-5.05
X4.8Y-5.15
X4.9Y-5.05
X4.9Y-5.15
X5.0Y-5.05
X5.0Y-5.15
X5.1Y-5.05
X5.1Y-5.15
X5.2Y-5.05
X5.2Y-5.15
X5.3Y-5.05
X5.3Y-5.15
T4
X2.6Y-2.9
X2.6Y-3.0
X2.6Y-3.1
X2.6Y-3.2
X2.6Y-3.3
X2.6Y-3.4
X2.6Y-3.5
X2.6Y-3.6
X2.6Y-3.7
X2.6Y-3.8
X7.6Y-2.7
X7.7Y-2.7
X7.8Y-2.7
X7.9Y-2.7
X8.0Y-2.7
X8.1Y-2.7
X8.2Y-2.7
X6.575Y-2.7
X6.675Y-2.7
X6.775Y-2.7
T5
X2.5Y-2.65
X8.625Y-5.0
X8.625Y-2.65
X2.5Y-5.0
T0
M30
